<svg width="73" height="73" viewBox="0 0 73 73" fill="none" xmlns="http://www.w3.org/2000/svg">
<path d="M51.7087 39.541V34.9785C51.7087 33.7685 51.228 32.608 50.3723 31.7523C49.5167 30.8967 48.3562 30.416 47.1462 30.416C48.3562 30.416 49.5167 29.9353 50.3723 29.0797C51.228 28.2241 51.7087 27.0636 51.7087 25.8535V21.291C51.7087 19.6776 51.0677 18.1303 49.9269 16.9894C48.786 15.8486 47.2387 15.2077 45.6253 15.2077H33.4587V21.291H45.6253V27.3743H39.542V33.4577H45.6253V39.541H33.4587V45.6243H45.6253C47.2387 45.6243 48.786 44.9834 49.9269 43.8426C51.0677 42.7017 51.7087 41.1544 51.7087 39.541ZM9.12533 15.2077H3.04199V63.8743C3.04199 65.4877 3.68291 67.0351 4.82376 68.1759C5.96461 69.3168 7.51192 69.9577 9.12533 69.9577H57.792V63.8743H9.12533M63.8753 51.7077H21.292V9.12435H63.8753M63.8753 3.04102H21.292C19.6786 3.04102 18.1313 3.68194 16.9904 4.82278C15.8496 5.96363 15.2087 7.51095 15.2087 9.12435V51.7077C15.2087 53.3211 15.8496 54.8684 16.9904 56.0092C18.1313 57.1501 19.6786 57.791 21.292 57.791H63.8753C65.4887 57.791 67.036 57.1501 68.1769 56.0092C69.3177 54.8684 69.9587 53.3211 69.9587 51.7077V9.12435C69.9587 7.51095 69.3177 5.96363 68.1769 4.82278C67.036 3.68194 65.4887 3.04102 63.8753 3.04102Z" fill="url(#paint0_linear_4068_46)"/>
<defs>
<linearGradient id="paint0_linear_4068_46" x1="36.5003" y1="3.04102" x2="36.5003" y2="69.9577" gradientUnits="userSpaceOnUse">
<stop stop-color="#37225C"/>
<stop offset="1" stop-color="#6C5B8B"/>
</linearGradient>
</defs>
</svg>
