<svg width="73" height="73" viewBox="0 0 73 73" fill="none" xmlns="http://www.w3.org/2000/svg">
<path d="M63.8753 51.7077H21.292V9.12435H63.8753M63.8753 3.04102H21.292C19.6786 3.04102 18.1313 3.68194 16.9904 4.82278C15.8496 5.96363 15.2087 7.51095 15.2087 9.12435V51.7077C15.2087 53.3211 15.8496 54.8684 16.9904 56.0092C18.1313 57.1501 19.6786 57.791 21.292 57.791H63.8753C65.4887 57.791 67.036 57.1501 68.1769 56.0092C69.3177 54.8684 69.9587 53.3211 69.9587 51.7077V9.12435C69.9587 7.51095 69.3177 5.96363 68.1769 4.82278C67.036 3.68194 65.4887 3.04102 63.8753 3.04102ZM45.6253 45.6243H51.7087V15.2077H45.6253V27.3743H39.542V15.2077H33.4587V33.4577H45.6253M9.12533 15.2077H3.04199V63.8743C3.04199 65.4877 3.68291 67.0351 4.82376 68.1759C5.96461 69.3168 7.51192 69.9577 9.12533 69.9577H57.792V63.8743H9.12533V15.2077Z" fill="url(#paint0_linear_4068_43)"/>
<defs>
<linearGradient id="paint0_linear_4068_43" x1="36.5003" y1="3.04102" x2="36.5003" y2="69.9577" gradientUnits="userSpaceOnUse">
<stop stop-color="#37225C"/>
<stop offset="1" stop-color="#6C5B8B"/>
</linearGradient>
</defs>
</svg>
